<svg width="10" height="21" viewBox="0 0 10 21" fill="none" xmlns="http://www.w3.org/2000/svg">
<path d="M9.02734 1C9.08297 0.998349 9.13911 1.00803 9.19238 1.0293C9.24584 1.05072 9.2967 1.08416 9.34082 1.12793C9.385 1.17178 9.42203 1.22565 9.44824 1.28711C9.47441 1.3485 9.4893 1.41565 9.49121 1.48438C9.49307 1.55327 9.48199 1.62221 9.45898 1.68555C9.436 1.74875 9.40145 1.80478 9.35937 1.85156L1.88867 10.1602L1.58789 10.4941L1.88867 10.8291L9.35937 19.1387L9.36425 19.1436C9.40726 19.1901 9.44205 19.247 9.46582 19.3105C9.4895 19.374 9.5014 19.4424 9.5 19.5117C9.49856 19.5812 9.48428 19.6498 9.458 19.7119C9.43176 19.7739 9.39411 19.8279 9.34961 19.8721C9.30512 19.9162 9.25413 19.9493 9.20019 19.9707C9.14628 19.9921 9.08945 20.0021 9.0332 20C8.97699 19.9979 8.92095 19.9835 8.86816 19.958C8.81541 19.9325 8.76643 19.8954 8.72461 19.8477L8.71972 19.8428L0.631834 10.8467C0.549513 10.7552 0.499998 10.6291 0.499998 10.4941C0.500043 10.393 0.527596 10.297 0.57617 10.2168L0.631834 10.1426L8.71973 1.14746C8.76175 1.10079 8.81076 1.06478 8.86328 1.04004C8.91582 1.01533 8.97158 1.00167 9.02734 1Z" fill="white" stroke="#DED2C6"/>
</svg>
