<svg width="10" height="21" viewBox="0 0 10 21" fill="none" xmlns="http://www.w3.org/2000/svg">
<path d="M0.268733 18.8137C0.182891 18.9092 0.115783 19.0214 0.0712377 19.1441C0.0266925 19.2667 0.00558386 19.3974 0.00911817 19.5286C0.0126525 19.6598 0.0407601 19.789 0.0918351 19.9089C0.14291 20.0287 0.215952 20.1367 0.306792 20.2269C0.397633 20.3171 0.504493 20.3876 0.621268 20.4344C0.738044 20.4811 0.862449 20.5033 0.987382 20.4996C1.11232 20.4959 1.23533 20.4664 1.3494 20.4127C1.46347 20.3591 1.56637 20.2823 1.65221 20.1869L9.73992 11.1922C9.90694 11.0067 10 10.761 10 10.5056C10 10.2503 9.90694 10.0046 9.73992 9.81902L1.65221 0.823299C1.56693 0.725795 1.46406 0.647058 1.34957 0.591666C1.23508 0.536275 1.11125 0.50533 0.985282 0.500629C0.859309 0.495927 0.733702 0.517564 0.615758 0.564283C0.497813 0.611001 0.389883 0.681869 0.298234 0.772769C0.206585 0.863669 0.133046 0.972795 0.081888 1.0938C0.03073 1.21481 0.00297237 1.34528 0.000227684 1.47765C-0.002517 1.61002 0.0198056 1.74164 0.0658996 1.86487C0.111994 1.9881 0.18094 2.10049 0.268735 2.19549L7.73987 10.5056L0.268733 18.8137Z" fill="white"/>
</svg>
